<mxfile host="Electron" modified="2023-12-29T02:27:31.498Z" agent="Mozilla/5.0 (Macintosh; Intel Mac OS X 10_15_7) AppleWebKit/537.36 (KHTML, like Gecko) draw.io/22.1.15 Chrome/120.0.6099.109 Electron/28.1.0 Safari/537.36" etag="V6l8Luc4EvZ9Cpq9zq2y" version="22.1.15" type="device">
  <diagram name="第 1 页" id="SBulXEHffC-p6IzfzmIS">
    <mxGraphModel dx="508" dy="326" grid="0" gridSize="10" guides="1" tooltips="1" connect="1" arrows="1" fold="1" page="1" pageScale="1" pageWidth="827" pageHeight="1169" math="0" shadow="0">
      <root>
        <mxCell id="0" />
        <mxCell id="1" parent="0" />
        <mxCell id="VPWzQLFmuGGSviMFfkSY-16" style="rounded=0;orthogonalLoop=1;jettySize=auto;html=1;entryX=0.5;entryY=0;entryDx=0;entryDy=0;exitX=0.5;exitY=1;exitDx=0;exitDy=0;" parent="1" source="VPWzQLFmuGGSviMFfkSY-7" target="VPWzQLFmuGGSviMFfkSY-15" edge="1">
          <mxGeometry relative="1" as="geometry">
            <mxPoint x="375" y="99" as="sourcePoint" />
          </mxGeometry>
        </mxCell>
        <mxCell id="VPWzQLFmuGGSviMFfkSY-22" style="edgeStyle=orthogonalEdgeStyle;rounded=0;orthogonalLoop=1;jettySize=auto;html=1;exitX=0.5;exitY=1;exitDx=0;exitDy=0;entryX=0.5;entryY=0;entryDx=0;entryDy=0;" parent="1" source="VPWzQLFmuGGSviMFfkSY-7" target="VPWzQLFmuGGSviMFfkSY-14" edge="1">
          <mxGeometry relative="1" as="geometry" />
        </mxCell>
        <mxCell id="VPWzQLFmuGGSviMFfkSY-7" value="(ab|d)*|(a|d)" style="rounded=1;whiteSpace=wrap;html=1;fillColor=#dae8fc;strokeColor=#6c8ebf;" parent="1" vertex="1">
          <mxGeometry x="339" y="68" width="78" height="21" as="geometry" />
        </mxCell>
        <mxCell id="VPWzQLFmuGGSviMFfkSY-17" style="rounded=0;orthogonalLoop=1;jettySize=auto;html=1;exitX=0.5;exitY=1;exitDx=0;exitDy=0;entryX=0.5;entryY=0;entryDx=0;entryDy=0;" parent="1" source="VPWzQLFmuGGSviMFfkSY-7" target="VPWzQLFmuGGSviMFfkSY-13" edge="1">
          <mxGeometry relative="1" as="geometry">
            <mxPoint x="399.5" y="98" as="sourcePoint" />
          </mxGeometry>
        </mxCell>
        <mxCell id="VPWzQLFmuGGSviMFfkSY-29" style="rounded=0;orthogonalLoop=1;jettySize=auto;html=1;exitX=0.5;exitY=1;exitDx=0;exitDy=0;entryX=0.75;entryY=0;entryDx=0;entryDy=0;" parent="1" source="VPWzQLFmuGGSviMFfkSY-13" target="VPWzQLFmuGGSviMFfkSY-27" edge="1">
          <mxGeometry relative="1" as="geometry" />
        </mxCell>
        <mxCell id="VPWzQLFmuGGSviMFfkSY-31" style="rounded=0;orthogonalLoop=1;jettySize=auto;html=1;exitX=0.5;exitY=1;exitDx=0;exitDy=0;entryX=0.5;entryY=0;entryDx=0;entryDy=0;" parent="1" source="VPWzQLFmuGGSviMFfkSY-13" target="VPWzQLFmuGGSviMFfkSY-26" edge="1">
          <mxGeometry relative="1" as="geometry" />
        </mxCell>
        <mxCell id="VPWzQLFmuGGSviMFfkSY-13" value="(a|d)" style="rounded=1;whiteSpace=wrap;html=1;fillColor=#dae8fc;strokeColor=#6c8ebf;" parent="1" vertex="1">
          <mxGeometry x="406" y="117" width="29" height="20" as="geometry" />
        </mxCell>
        <mxCell id="VPWzQLFmuGGSviMFfkSY-14" value="|" style="rounded=1;whiteSpace=wrap;html=1;fillColor=#d5e8d4;strokeColor=#82b366;" parent="1" vertex="1">
          <mxGeometry x="374" y="116.5" width="8" height="21" as="geometry" />
        </mxCell>
        <mxCell id="VPWzQLFmuGGSviMFfkSY-24" style="rounded=0;orthogonalLoop=1;jettySize=auto;html=1;exitX=0.5;exitY=1;exitDx=0;exitDy=0;entryX=0.5;entryY=0;entryDx=0;entryDy=0;" parent="1" source="VPWzQLFmuGGSviMFfkSY-15" target="VPWzQLFmuGGSviMFfkSY-21" edge="1">
          <mxGeometry relative="1" as="geometry" />
        </mxCell>
        <mxCell id="VPWzQLFmuGGSviMFfkSY-25" style="rounded=0;orthogonalLoop=1;jettySize=auto;html=1;exitX=0.5;exitY=1;exitDx=0;exitDy=0;entryX=0.5;entryY=0;entryDx=0;entryDy=0;" parent="1" source="VPWzQLFmuGGSviMFfkSY-15" target="VPWzQLFmuGGSviMFfkSY-23" edge="1">
          <mxGeometry relative="1" as="geometry" />
        </mxCell>
        <mxCell id="VPWzQLFmuGGSviMFfkSY-15" value="(ab|d)*" style="rounded=1;whiteSpace=wrap;html=1;fillColor=#dae8fc;strokeColor=#6c8ebf;" parent="1" vertex="1">
          <mxGeometry x="317" y="116" width="41" height="21" as="geometry" />
        </mxCell>
        <mxCell id="VPWzQLFmuGGSviMFfkSY-35" style="rounded=0;orthogonalLoop=1;jettySize=auto;html=1;exitX=0.5;exitY=1;exitDx=0;exitDy=0;entryX=0.5;entryY=0;entryDx=0;entryDy=0;" parent="1" source="VPWzQLFmuGGSviMFfkSY-21" target="VPWzQLFmuGGSviMFfkSY-32" edge="1">
          <mxGeometry relative="1" as="geometry" />
        </mxCell>
        <mxCell id="VPWzQLFmuGGSviMFfkSY-36" style="rounded=0;orthogonalLoop=1;jettySize=auto;html=1;exitX=0.5;exitY=1;exitDx=0;exitDy=0;entryX=0.5;entryY=0;entryDx=0;entryDy=0;" parent="1" source="VPWzQLFmuGGSviMFfkSY-21" target="VPWzQLFmuGGSviMFfkSY-33" edge="1">
          <mxGeometry relative="1" as="geometry" />
        </mxCell>
        <mxCell id="VPWzQLFmuGGSviMFfkSY-37" style="rounded=0;orthogonalLoop=1;jettySize=auto;html=1;exitX=0.5;exitY=1;exitDx=0;exitDy=0;entryX=0.5;entryY=0;entryDx=0;entryDy=0;" parent="1" source="VPWzQLFmuGGSviMFfkSY-21" target="VPWzQLFmuGGSviMFfkSY-34" edge="1">
          <mxGeometry relative="1" as="geometry" />
        </mxCell>
        <mxCell id="VPWzQLFmuGGSviMFfkSY-21" value="(ab|d)" style="rounded=1;whiteSpace=wrap;html=1;fillColor=#dae8fc;strokeColor=#6c8ebf;" parent="1" vertex="1">
          <mxGeometry x="281" y="154" width="41" height="21" as="geometry" />
        </mxCell>
        <mxCell id="VPWzQLFmuGGSviMFfkSY-23" value="*" style="rounded=1;whiteSpace=wrap;html=1;fillColor=#d5e8d4;strokeColor=#82b366;" parent="1" vertex="1">
          <mxGeometry x="344" y="154" width="6" height="21" as="geometry" />
        </mxCell>
        <mxCell id="VPWzQLFmuGGSviMFfkSY-92" style="rounded=0;orthogonalLoop=1;jettySize=auto;html=1;exitX=0.5;exitY=1;exitDx=0;exitDy=0;entryX=0.5;entryY=0;entryDx=0;entryDy=0;" parent="1" source="VPWzQLFmuGGSviMFfkSY-26" target="VPWzQLFmuGGSviMFfkSY-91" edge="1">
          <mxGeometry relative="1" as="geometry" />
        </mxCell>
        <mxCell id="VPWzQLFmuGGSviMFfkSY-93" style="rounded=0;orthogonalLoop=1;jettySize=auto;html=1;exitX=0.5;exitY=1;exitDx=0;exitDy=0;entryX=0.5;entryY=0;entryDx=0;entryDy=0;" parent="1" source="VPWzQLFmuGGSviMFfkSY-26" target="VPWzQLFmuGGSviMFfkSY-89" edge="1">
          <mxGeometry relative="1" as="geometry" />
        </mxCell>
        <mxCell id="VPWzQLFmuGGSviMFfkSY-94" style="rounded=0;orthogonalLoop=1;jettySize=auto;html=1;exitX=0.5;exitY=1;exitDx=0;exitDy=0;entryX=0.5;entryY=0;entryDx=0;entryDy=0;" parent="1" source="VPWzQLFmuGGSviMFfkSY-26" target="VPWzQLFmuGGSviMFfkSY-90" edge="1">
          <mxGeometry relative="1" as="geometry" />
        </mxCell>
        <mxCell id="VPWzQLFmuGGSviMFfkSY-26" value="a|d" style="rounded=1;whiteSpace=wrap;html=1;fillColor=#dae8fc;strokeColor=#6c8ebf;" parent="1" vertex="1">
          <mxGeometry x="406" y="154.5" width="29" height="20" as="geometry" />
        </mxCell>
        <mxCell id="VPWzQLFmuGGSviMFfkSY-27" value="(" style="rounded=1;whiteSpace=wrap;html=1;fillColor=#d5e8d4;strokeColor=#82b366;" parent="1" vertex="1">
          <mxGeometry x="385" y="154" width="7" height="20" as="geometry" />
        </mxCell>
        <mxCell id="VPWzQLFmuGGSviMFfkSY-28" value=")" style="rounded=1;whiteSpace=wrap;html=1;fillColor=#d5e8d4;strokeColor=#82b366;" parent="1" vertex="1">
          <mxGeometry x="449" y="154.5" width="6" height="20" as="geometry" />
        </mxCell>
        <mxCell id="VPWzQLFmuGGSviMFfkSY-30" style="rounded=0;orthogonalLoop=1;jettySize=auto;html=1;exitX=0.5;exitY=1;exitDx=0;exitDy=0;entryX=0.533;entryY=0.089;entryDx=0;entryDy=0;entryPerimeter=0;" parent="1" source="VPWzQLFmuGGSviMFfkSY-13" target="VPWzQLFmuGGSviMFfkSY-28" edge="1">
          <mxGeometry relative="1" as="geometry" />
        </mxCell>
        <mxCell id="VPWzQLFmuGGSviMFfkSY-41" style="rounded=0;orthogonalLoop=1;jettySize=auto;html=1;exitX=0.5;exitY=1;exitDx=0;exitDy=0;entryX=0.5;entryY=0;entryDx=0;entryDy=0;" parent="1" source="VPWzQLFmuGGSviMFfkSY-32" target="VPWzQLFmuGGSviMFfkSY-40" edge="1">
          <mxGeometry relative="1" as="geometry" />
        </mxCell>
        <mxCell id="VPWzQLFmuGGSviMFfkSY-42" style="rounded=0;orthogonalLoop=1;jettySize=auto;html=1;exitX=0.5;exitY=1;exitDx=0;exitDy=0;entryX=0.5;entryY=0;entryDx=0;entryDy=0;" parent="1" source="VPWzQLFmuGGSviMFfkSY-32" target="VPWzQLFmuGGSviMFfkSY-38" edge="1">
          <mxGeometry relative="1" as="geometry" />
        </mxCell>
        <mxCell id="VPWzQLFmuGGSviMFfkSY-44" style="rounded=0;orthogonalLoop=1;jettySize=auto;html=1;exitX=0.5;exitY=1;exitDx=0;exitDy=0;entryX=0.5;entryY=0;entryDx=0;entryDy=0;" parent="1" source="VPWzQLFmuGGSviMFfkSY-32" target="VPWzQLFmuGGSviMFfkSY-39" edge="1">
          <mxGeometry relative="1" as="geometry" />
        </mxCell>
        <mxCell id="VPWzQLFmuGGSviMFfkSY-32" value="ab|d" style="rounded=1;whiteSpace=wrap;html=1;fillColor=#dae8fc;strokeColor=#6c8ebf;" parent="1" vertex="1">
          <mxGeometry x="287" y="188.5" width="29" height="20" as="geometry" />
        </mxCell>
        <mxCell id="VPWzQLFmuGGSviMFfkSY-33" value="(" style="rounded=1;whiteSpace=wrap;html=1;fillColor=#d5e8d4;strokeColor=#82b366;" parent="1" vertex="1">
          <mxGeometry x="266.5" y="188" width="7" height="20" as="geometry" />
        </mxCell>
        <mxCell id="VPWzQLFmuGGSviMFfkSY-34" value=")" style="rounded=1;whiteSpace=wrap;html=1;fillColor=#d5e8d4;strokeColor=#82b366;" parent="1" vertex="1">
          <mxGeometry x="330.5" y="188.5" width="6" height="20" as="geometry" />
        </mxCell>
        <mxCell id="VPWzQLFmuGGSviMFfkSY-38" value="d" style="rounded=1;whiteSpace=wrap;html=1;fillColor=#d5e8d4;strokeColor=#82b366;" parent="1" vertex="1">
          <mxGeometry x="329.25" y="223" width="8.5" height="20" as="geometry" />
        </mxCell>
        <mxCell id="VPWzQLFmuGGSviMFfkSY-39" value="|" style="rounded=1;whiteSpace=wrap;html=1;fillColor=#d5e8d4;strokeColor=#82b366;" parent="1" vertex="1">
          <mxGeometry x="297.5" y="222" width="8" height="21" as="geometry" />
        </mxCell>
        <mxCell id="VPWzQLFmuGGSviMFfkSY-48" style="rounded=0;orthogonalLoop=1;jettySize=auto;html=1;exitX=0.5;exitY=1;exitDx=0;exitDy=0;entryX=0.5;entryY=0;entryDx=0;entryDy=0;" parent="1" source="VPWzQLFmuGGSviMFfkSY-40" target="VPWzQLFmuGGSviMFfkSY-45" edge="1">
          <mxGeometry relative="1" as="geometry" />
        </mxCell>
        <mxCell id="VPWzQLFmuGGSviMFfkSY-40" value="ab" style="rounded=1;whiteSpace=wrap;html=1;fillColor=#dae8fc;strokeColor=#6c8ebf;" parent="1" vertex="1">
          <mxGeometry x="265.5" y="223" width="21.5" height="21" as="geometry" />
        </mxCell>
        <mxCell id="VPWzQLFmuGGSviMFfkSY-45" value="b" style="rounded=1;whiteSpace=wrap;html=1;fillColor=#d5e8d4;strokeColor=#82b366;" parent="1" vertex="1">
          <mxGeometry x="284" y="256" width="8" height="21" as="geometry" />
        </mxCell>
        <mxCell id="VPWzQLFmuGGSviMFfkSY-46" value="a" style="rounded=1;whiteSpace=wrap;html=1;fillColor=#d5e8d4;strokeColor=#82b366;" parent="1" vertex="1">
          <mxGeometry x="263" y="256" width="8" height="21" as="geometry" />
        </mxCell>
        <mxCell id="VPWzQLFmuGGSviMFfkSY-47" style="rounded=0;orthogonalLoop=1;jettySize=auto;html=1;exitX=0.5;exitY=1;exitDx=0;exitDy=0;entryX=0.5;entryY=0;entryDx=0;entryDy=0;" parent="1" source="VPWzQLFmuGGSviMFfkSY-40" target="VPWzQLFmuGGSviMFfkSY-46" edge="1">
          <mxGeometry relative="1" as="geometry">
            <mxPoint x="262" y="255" as="targetPoint" />
          </mxGeometry>
        </mxCell>
        <mxCell id="VPWzQLFmuGGSviMFfkSY-50" style="rounded=0;orthogonalLoop=1;jettySize=auto;html=1;entryX=0.5;entryY=0;entryDx=0;entryDy=0;exitX=0.5;exitY=1;exitDx=0;exitDy=0;" parent="1" source="VPWzQLFmuGGSviMFfkSY-52" target="VPWzQLFmuGGSviMFfkSY-60" edge="1">
          <mxGeometry relative="1" as="geometry">
            <mxPoint x="620" y="104" as="sourcePoint" />
          </mxGeometry>
        </mxCell>
        <mxCell id="VPWzQLFmuGGSviMFfkSY-51" style="rounded=0;orthogonalLoop=1;jettySize=auto;html=1;exitX=0.5;exitY=1;exitDx=0;exitDy=0;entryX=0.5;entryY=0;entryDx=0;entryDy=0;" parent="1" source="VPWzQLFmuGGSviMFfkSY-52" target="VPWzQLFmuGGSviMFfkSY-57" edge="1">
          <mxGeometry relative="1" as="geometry" />
        </mxCell>
        <mxCell id="VPWzQLFmuGGSviMFfkSY-52" value="(ab|d)*|(a|d)" style="rounded=1;whiteSpace=wrap;html=1;fillColor=#dae8fc;strokeColor=#6c8ebf;" parent="1" vertex="1">
          <mxGeometry x="584" y="37" width="78" height="21" as="geometry" />
        </mxCell>
        <mxCell id="VPWzQLFmuGGSviMFfkSY-53" style="rounded=0;orthogonalLoop=1;jettySize=auto;html=1;exitX=0.5;exitY=1;exitDx=0;exitDy=0;entryX=0.5;entryY=0;entryDx=0;entryDy=0;" parent="1" source="VPWzQLFmuGGSviMFfkSY-52" target="VPWzQLFmuGGSviMFfkSY-56" edge="1">
          <mxGeometry relative="1" as="geometry">
            <mxPoint x="644.5" y="103" as="sourcePoint" />
          </mxGeometry>
        </mxCell>
        <mxCell id="VPWzQLFmuGGSviMFfkSY-54" style="rounded=0;orthogonalLoop=1;jettySize=auto;html=1;exitX=0.5;exitY=1;exitDx=0;exitDy=0;entryX=0.75;entryY=0;entryDx=0;entryDy=0;" parent="1" source="VPWzQLFmuGGSviMFfkSY-56" target="VPWzQLFmuGGSviMFfkSY-67" edge="1">
          <mxGeometry relative="1" as="geometry" />
        </mxCell>
        <mxCell id="VPWzQLFmuGGSviMFfkSY-55" style="rounded=0;orthogonalLoop=1;jettySize=auto;html=1;exitX=0.5;exitY=1;exitDx=0;exitDy=0;entryX=0.5;entryY=0;entryDx=0;entryDy=0;" parent="1" source="VPWzQLFmuGGSviMFfkSY-56" target="VPWzQLFmuGGSviMFfkSY-66" edge="1">
          <mxGeometry relative="1" as="geometry" />
        </mxCell>
        <mxCell id="VPWzQLFmuGGSviMFfkSY-56" value="(a|d)" style="rounded=1;whiteSpace=wrap;html=1;fillColor=#dae8fc;strokeColor=#6c8ebf;" parent="1" vertex="1">
          <mxGeometry x="649" y="82" width="29" height="20" as="geometry" />
        </mxCell>
        <mxCell id="VPWzQLFmuGGSviMFfkSY-57" value="|" style="rounded=1;whiteSpace=wrap;html=1;fillColor=#d5e8d4;strokeColor=#82b366;" parent="1" vertex="1">
          <mxGeometry x="606" y="262.5" width="8" height="21" as="geometry" />
        </mxCell>
        <mxCell id="VPWzQLFmuGGSviMFfkSY-58" style="rounded=0;orthogonalLoop=1;jettySize=auto;html=1;exitX=0.5;exitY=1;exitDx=0;exitDy=0;entryX=0.5;entryY=0;entryDx=0;entryDy=0;" parent="1" source="VPWzQLFmuGGSviMFfkSY-60" target="VPWzQLFmuGGSviMFfkSY-64" edge="1">
          <mxGeometry relative="1" as="geometry" />
        </mxCell>
        <mxCell id="VPWzQLFmuGGSviMFfkSY-59" style="rounded=0;orthogonalLoop=1;jettySize=auto;html=1;exitX=0.5;exitY=1;exitDx=0;exitDy=0;entryX=0.5;entryY=0;entryDx=0;entryDy=0;" parent="1" source="VPWzQLFmuGGSviMFfkSY-60" target="VPWzQLFmuGGSviMFfkSY-65" edge="1">
          <mxGeometry relative="1" as="geometry" />
        </mxCell>
        <mxCell id="VPWzQLFmuGGSviMFfkSY-60" value="(ab|d)*" style="rounded=1;whiteSpace=wrap;html=1;fillColor=#dae8fc;strokeColor=#6c8ebf;" parent="1" vertex="1">
          <mxGeometry x="557" y="81" width="41" height="21" as="geometry" />
        </mxCell>
        <mxCell id="VPWzQLFmuGGSviMFfkSY-61" style="rounded=0;orthogonalLoop=1;jettySize=auto;html=1;exitX=0.5;exitY=1;exitDx=0;exitDy=0;entryX=0.5;entryY=0;entryDx=0;entryDy=0;" parent="1" source="VPWzQLFmuGGSviMFfkSY-64" target="VPWzQLFmuGGSviMFfkSY-73" edge="1">
          <mxGeometry relative="1" as="geometry" />
        </mxCell>
        <mxCell id="VPWzQLFmuGGSviMFfkSY-62" style="rounded=0;orthogonalLoop=1;jettySize=auto;html=1;exitX=0.5;exitY=1;exitDx=0;exitDy=0;entryX=0.5;entryY=0;entryDx=0;entryDy=0;" parent="1" source="VPWzQLFmuGGSviMFfkSY-64" target="VPWzQLFmuGGSviMFfkSY-74" edge="1">
          <mxGeometry relative="1" as="geometry" />
        </mxCell>
        <mxCell id="VPWzQLFmuGGSviMFfkSY-63" style="rounded=0;orthogonalLoop=1;jettySize=auto;html=1;exitX=0.5;exitY=1;exitDx=0;exitDy=0;entryX=0.5;entryY=0;entryDx=0;entryDy=0;" parent="1" source="VPWzQLFmuGGSviMFfkSY-64" target="VPWzQLFmuGGSviMFfkSY-75" edge="1">
          <mxGeometry relative="1" as="geometry" />
        </mxCell>
        <mxCell id="VPWzQLFmuGGSviMFfkSY-64" value="(ab|d)" style="rounded=1;whiteSpace=wrap;html=1;fillColor=#dae8fc;strokeColor=#6c8ebf;" parent="1" vertex="1">
          <mxGeometry x="519" y="127" width="41" height="21" as="geometry" />
        </mxCell>
        <mxCell id="VPWzQLFmuGGSviMFfkSY-65" value="*" style="rounded=1;whiteSpace=wrap;html=1;fillColor=#d5e8d4;strokeColor=#82b366;" parent="1" vertex="1">
          <mxGeometry x="592" y="262.5" width="6" height="21" as="geometry" />
        </mxCell>
        <mxCell id="VPWzQLFmuGGSviMFfkSY-99" style="rounded=0;orthogonalLoop=1;jettySize=auto;html=1;exitX=0.5;exitY=1;exitDx=0;exitDy=0;entryX=0.5;entryY=0;entryDx=0;entryDy=0;" parent="1" source="VPWzQLFmuGGSviMFfkSY-66" target="VPWzQLFmuGGSviMFfkSY-96" edge="1">
          <mxGeometry relative="1" as="geometry" />
        </mxCell>
        <mxCell id="VPWzQLFmuGGSviMFfkSY-100" style="rounded=0;orthogonalLoop=1;jettySize=auto;html=1;exitX=0.5;exitY=1;exitDx=0;exitDy=0;entryX=0.5;entryY=0;entryDx=0;entryDy=0;" parent="1" source="VPWzQLFmuGGSviMFfkSY-66" target="VPWzQLFmuGGSviMFfkSY-98" edge="1">
          <mxGeometry relative="1" as="geometry" />
        </mxCell>
        <mxCell id="VPWzQLFmuGGSviMFfkSY-101" style="rounded=0;orthogonalLoop=1;jettySize=auto;html=1;exitX=0.5;exitY=1;exitDx=0;exitDy=0;entryX=0.5;entryY=0;entryDx=0;entryDy=0;" parent="1" source="VPWzQLFmuGGSviMFfkSY-66" target="VPWzQLFmuGGSviMFfkSY-97" edge="1">
          <mxGeometry relative="1" as="geometry" />
        </mxCell>
        <mxCell id="VPWzQLFmuGGSviMFfkSY-66" value="a|d" style="rounded=1;whiteSpace=wrap;html=1;fillColor=#dae8fc;strokeColor=#6c8ebf;" parent="1" vertex="1">
          <mxGeometry x="649" y="224" width="29" height="20" as="geometry" />
        </mxCell>
        <mxCell id="VPWzQLFmuGGSviMFfkSY-67" value="(" style="rounded=1;whiteSpace=wrap;html=1;fillColor=#d5e8d4;strokeColor=#82b366;" parent="1" vertex="1">
          <mxGeometry x="622" y="261" width="7" height="20" as="geometry" />
        </mxCell>
        <mxCell id="VPWzQLFmuGGSviMFfkSY-68" value=")" style="rounded=1;whiteSpace=wrap;html=1;fillColor=#d5e8d4;strokeColor=#82b366;" parent="1" vertex="1">
          <mxGeometry x="693" y="260.5" width="6" height="20" as="geometry" />
        </mxCell>
        <mxCell id="VPWzQLFmuGGSviMFfkSY-69" style="rounded=0;orthogonalLoop=1;jettySize=auto;html=1;exitX=0.5;exitY=1;exitDx=0;exitDy=0;entryX=0.533;entryY=0.089;entryDx=0;entryDy=0;entryPerimeter=0;" parent="1" source="VPWzQLFmuGGSviMFfkSY-56" target="VPWzQLFmuGGSviMFfkSY-68" edge="1">
          <mxGeometry relative="1" as="geometry" />
        </mxCell>
        <mxCell id="VPWzQLFmuGGSviMFfkSY-70" style="rounded=0;orthogonalLoop=1;jettySize=auto;html=1;exitX=0.5;exitY=1;exitDx=0;exitDy=0;entryX=0.5;entryY=0;entryDx=0;entryDy=0;" parent="1" source="VPWzQLFmuGGSviMFfkSY-73" target="VPWzQLFmuGGSviMFfkSY-79" edge="1">
          <mxGeometry relative="1" as="geometry" />
        </mxCell>
        <mxCell id="VPWzQLFmuGGSviMFfkSY-71" style="rounded=0;orthogonalLoop=1;jettySize=auto;html=1;exitX=0.5;exitY=1;exitDx=0;exitDy=0;entryX=0.5;entryY=0;entryDx=0;entryDy=0;" parent="1" source="VPWzQLFmuGGSviMFfkSY-73" target="VPWzQLFmuGGSviMFfkSY-76" edge="1">
          <mxGeometry relative="1" as="geometry" />
        </mxCell>
        <mxCell id="VPWzQLFmuGGSviMFfkSY-72" style="rounded=0;orthogonalLoop=1;jettySize=auto;html=1;exitX=0.5;exitY=1;exitDx=0;exitDy=0;entryX=0.5;entryY=0;entryDx=0;entryDy=0;" parent="1" source="VPWzQLFmuGGSviMFfkSY-73" target="VPWzQLFmuGGSviMFfkSY-77" edge="1">
          <mxGeometry relative="1" as="geometry" />
        </mxCell>
        <mxCell id="VPWzQLFmuGGSviMFfkSY-73" value="ab|d" style="rounded=1;whiteSpace=wrap;html=1;fillColor=#dae8fc;strokeColor=#6c8ebf;" parent="1" vertex="1">
          <mxGeometry x="524" y="188" width="29" height="20" as="geometry" />
        </mxCell>
        <mxCell id="VPWzQLFmuGGSviMFfkSY-74" value="(" style="rounded=1;whiteSpace=wrap;html=1;fillColor=#d5e8d4;strokeColor=#82b366;" parent="1" vertex="1">
          <mxGeometry x="491" y="261.5" width="7" height="20" as="geometry" />
        </mxCell>
        <mxCell id="VPWzQLFmuGGSviMFfkSY-75" value=")" style="rounded=1;whiteSpace=wrap;html=1;fillColor=#d5e8d4;strokeColor=#82b366;" parent="1" vertex="1">
          <mxGeometry x="578" y="262.5" width="6" height="20" as="geometry" />
        </mxCell>
        <mxCell id="VPWzQLFmuGGSviMFfkSY-76" value="d" style="rounded=1;whiteSpace=wrap;html=1;fillColor=#d5e8d4;strokeColor=#82b366;" parent="1" vertex="1">
          <mxGeometry x="562" y="262.5" width="8.5" height="20" as="geometry" />
        </mxCell>
        <mxCell id="VPWzQLFmuGGSviMFfkSY-77" value="|" style="rounded=1;whiteSpace=wrap;html=1;fillColor=#d5e8d4;strokeColor=#82b366;" parent="1" vertex="1">
          <mxGeometry x="545" y="261.5" width="8" height="21" as="geometry" />
        </mxCell>
        <mxCell id="VPWzQLFmuGGSviMFfkSY-78" style="rounded=0;orthogonalLoop=1;jettySize=auto;html=1;exitX=0.5;exitY=1;exitDx=0;exitDy=0;entryX=0.5;entryY=0;entryDx=0;entryDy=0;" parent="1" source="VPWzQLFmuGGSviMFfkSY-79" target="VPWzQLFmuGGSviMFfkSY-80" edge="1">
          <mxGeometry relative="1" as="geometry" />
        </mxCell>
        <mxCell id="VPWzQLFmuGGSviMFfkSY-79" value="ab" style="rounded=1;whiteSpace=wrap;html=1;fillColor=#dae8fc;strokeColor=#6c8ebf;" parent="1" vertex="1">
          <mxGeometry x="512" y="223.5" width="21.5" height="21" as="geometry" />
        </mxCell>
        <mxCell id="VPWzQLFmuGGSviMFfkSY-80" value="b" style="rounded=1;whiteSpace=wrap;html=1;fillColor=#d5e8d4;strokeColor=#82b366;" parent="1" vertex="1">
          <mxGeometry x="529" y="261" width="8" height="21" as="geometry" />
        </mxCell>
        <mxCell id="VPWzQLFmuGGSviMFfkSY-81" value="a" style="rounded=1;whiteSpace=wrap;html=1;fillColor=#d5e8d4;strokeColor=#82b366;" parent="1" vertex="1">
          <mxGeometry x="508" y="261" width="8" height="21" as="geometry" />
        </mxCell>
        <mxCell id="VPWzQLFmuGGSviMFfkSY-82" style="rounded=0;orthogonalLoop=1;jettySize=auto;html=1;exitX=0.5;exitY=1;exitDx=0;exitDy=0;entryX=0.5;entryY=0;entryDx=0;entryDy=0;" parent="1" source="VPWzQLFmuGGSviMFfkSY-79" target="VPWzQLFmuGGSviMFfkSY-81" edge="1">
          <mxGeometry relative="1" as="geometry">
            <mxPoint x="507" y="260" as="targetPoint" />
          </mxGeometry>
        </mxCell>
        <mxCell id="VPWzQLFmuGGSviMFfkSY-89" value="a" style="rounded=1;whiteSpace=wrap;html=1;fillColor=#d5e8d4;strokeColor=#82b366;" parent="1" vertex="1">
          <mxGeometry x="399" y="193" width="7" height="20" as="geometry" />
        </mxCell>
        <mxCell id="VPWzQLFmuGGSviMFfkSY-90" value="d" style="rounded=1;whiteSpace=wrap;html=1;fillColor=#d5e8d4;strokeColor=#82b366;" parent="1" vertex="1">
          <mxGeometry x="435" y="193" width="6" height="20" as="geometry" />
        </mxCell>
        <mxCell id="VPWzQLFmuGGSviMFfkSY-91" value="|" style="rounded=1;whiteSpace=wrap;html=1;fillColor=#d5e8d4;strokeColor=#82b366;" parent="1" vertex="1">
          <mxGeometry x="416.5" y="192" width="8" height="21" as="geometry" />
        </mxCell>
        <mxCell id="VPWzQLFmuGGSviMFfkSY-96" value="a" style="rounded=1;whiteSpace=wrap;html=1;fillColor=#d5e8d4;strokeColor=#82b366;" parent="1" vertex="1">
          <mxGeometry x="642" y="261.5" width="7" height="20" as="geometry" />
        </mxCell>
        <mxCell id="VPWzQLFmuGGSviMFfkSY-97" value="d" style="rounded=1;whiteSpace=wrap;html=1;fillColor=#d5e8d4;strokeColor=#82b366;" parent="1" vertex="1">
          <mxGeometry x="678" y="261.5" width="6" height="20" as="geometry" />
        </mxCell>
        <mxCell id="VPWzQLFmuGGSviMFfkSY-98" value="|" style="rounded=1;whiteSpace=wrap;html=1;fillColor=#d5e8d4;strokeColor=#82b366;" parent="1" vertex="1">
          <mxGeometry x="659.5" y="260.5" width="8" height="21" as="geometry" />
        </mxCell>
        <mxCell id="KAWJCkqBnzNZZZBYNF3e-2" value="" style="ellipse;whiteSpace=wrap;html=1;aspect=fixed;fillColor=none;" vertex="1" parent="1">
          <mxGeometry x="261.5" y="389" width="112" height="112" as="geometry" />
        </mxCell>
        <mxCell id="KAWJCkqBnzNZZZBYNF3e-3" value="" style="ellipse;whiteSpace=wrap;html=1;aspect=fixed;fillColor=none;" vertex="1" parent="1">
          <mxGeometry x="287" y="399" width="63" height="63" as="geometry" />
        </mxCell>
        <mxCell id="KAWJCkqBnzNZZZBYNF3e-4" value="" style="ellipse;whiteSpace=wrap;html=1;aspect=fixed;fillColor=none;" vertex="1" parent="1">
          <mxGeometry x="308.5" y="407" width="28" height="28" as="geometry" />
        </mxCell>
        <mxCell id="KAWJCkqBnzNZZZBYNF3e-5" value="" style="ellipse;whiteSpace=wrap;html=1;aspect=fixed;fillColor=none;" vertex="1" parent="1">
          <mxGeometry x="318.5" y="419" width="12" height="12" as="geometry" />
        </mxCell>
        <mxCell id="KAWJCkqBnzNZZZBYNF3e-7" value="" style="endArrow=classic;html=1;rounded=0;" edge="1" parent="1">
          <mxGeometry width="50" height="50" relative="1" as="geometry">
            <mxPoint x="225" y="426" as="sourcePoint" />
            <mxPoint x="263" y="429" as="targetPoint" />
          </mxGeometry>
        </mxCell>
        <mxCell id="KAWJCkqBnzNZZZBYNF3e-8" value="" style="endArrow=classic;html=1;rounded=0;" edge="1" parent="1">
          <mxGeometry width="50" height="50" relative="1" as="geometry">
            <mxPoint x="263" y="430" as="sourcePoint" />
            <mxPoint x="288" y="432" as="targetPoint" />
          </mxGeometry>
        </mxCell>
        <mxCell id="KAWJCkqBnzNZZZBYNF3e-9" value="" style="endArrow=classic;html=1;rounded=0;entryX=-0.029;entryY=0.716;entryDx=0;entryDy=0;entryPerimeter=0;" edge="1" parent="1" target="KAWJCkqBnzNZZZBYNF3e-4">
          <mxGeometry width="50" height="50" relative="1" as="geometry">
            <mxPoint x="289" y="433" as="sourcePoint" />
            <mxPoint x="314" y="435" as="targetPoint" />
          </mxGeometry>
        </mxCell>
        <mxCell id="KAWJCkqBnzNZZZBYNF3e-10" value="" style="endArrow=classic;html=1;rounded=0;entryX=-0.001;entryY=0.694;entryDx=0;entryDy=0;entryPerimeter=0;" edge="1" parent="1" target="KAWJCkqBnzNZZZBYNF3e-5">
          <mxGeometry width="50" height="50" relative="1" as="geometry">
            <mxPoint x="309" y="428" as="sourcePoint" />
            <mxPoint x="328" y="422" as="targetPoint" />
          </mxGeometry>
        </mxCell>
      </root>
    </mxGraphModel>
  </diagram>
</mxfile>
